<?xml version="1.0" encoding="UTF-8"?>
<svg id="Layer_2" data-name="Layer 2" xmlns="http://www.w3.org/2000/svg" viewBox="0 0 571.5 705.73">
  <defs>
    <style>
      .cls-1 {
        stroke: #041a30;
        stroke-miterlimit: 10;
        stroke-width: 25px;
      }

      .cls-1, .cls-2 {
        fill: #34ad5c;
      }

      .cls-3, .cls-2, .cls-4, .cls-5, .cls-6, .cls-7, .cls-8, .cls-9, .cls-10 {
        fill-rule: evenodd;
      }

      .cls-3, .cls-2, .cls-4, .cls-5, .cls-6, .cls-7, .cls-8, .cls-9, .cls-10, .cls-11, .cls-12, .cls-13 {
        stroke-width: 0px;
      }

      .cls-3, .cls-13 {
        fill: #041a30;
      }

      .cls-4, .cls-11 {
        fill: #4d4d4d;
      }

      .cls-5 {
        fill: gray;
      }

      .cls-6 {
        fill: #ce9c7b;
      }

      .cls-7 {
        fill: #dbdcdd;
      }

      .cls-8 {
        fill: #ffdcb5;
      }

      .cls-9, .cls-12 {
        fill: #fff;
      }

      .cls-10 {
        fill: #b3b3b3;
      }
    </style>
  </defs>
  <g id="Layer_3" data-name="Layer 3">
    <g>
      <circle class="cls-1" cx="285.75" cy="348.62" r="265.49" transform="translate(-162.81 304.16) rotate(-45)"/>
      <g>
        <path class="cls-7" d="m162.93,387.29c-5.8-16.06-3.5-34.6,7.5-48.24l.79-.98c-10.77-3.84-18.91-9.38-25.56-20.04l-.07-.11-.06-.11c-9.97-16.92-17.73-45.43-13.62-67.04-16.23-5.2-33.44-15.41-33.74-33.61-.2-11.65,7.25-21.17,16.38-27.56,8.96-6.28,19.99-10.11,30.93-12.29-.24-28.01-1.76-56.37-5.55-84.05-2.07-15.08-4.85-30.26-8.96-44.93-.54-1.91-.74-3.89-.6-5.87,1.1-15.51,22.23-23.29,34.67-27.23,19.51-6.18,41.3-9.78,61.61-12.14,19.34-2.25,39.62-3.6,59.1-2.91,19.48-.69,39.76.66,59.1,2.91,20.31,2.36,42.09,5.96,61.61,12.14,12.44,3.94,33.57,11.72,34.67,27.23.14,1.98-.07,3.96-.6,5.87-4.11,14.67-6.89,29.84-8.96,44.93-3.79,27.68-5.31,56.03-5.55,84.05,10.94,2.18,21.97,6.01,30.93,12.29,9.13,6.4,16.58,15.91,16.38,27.56-.3,18.2-17.51,28.41-33.74,33.61,4.11,21.62-3.65,50.13-13.62,67.04l-.06.11-.07.11c-6.65,10.66-14.79,16.2-25.56,20.04l.79.98c11,13.64,13.3,32.18,7.5,48.24,17.99,8.55,35.68,17.86,53.17,27.36l5.52,3-.37,6.28c-1.77,29.88-6.78,54.67-19.69,81.85l-1.95,4.1-22.36,6.13,10.43,23.05-3.58,4.7c-13.49,17.69-29.56,33.89-46.28,48.52-15.24,13.34-31.49,25.74-48.33,36.99-14.34,9.58-29.55,18.67-45.17,26.01l-4.2,1.97-4.21-1.97c-15.62-7.33-30.83-16.43-45.16-26.01-16.84-11.25-33.08-23.66-48.33-36.99-16.72-14.63-32.79-30.83-46.28-48.52l-3.58-4.7,10.43-23.05-22.36-6.13-1.95-4.1c-12.92-27.18-17.92-51.97-19.7-81.85l-.37-6.28,5.52-3c17.49-9.5,35.17-18.81,53.17-27.36"/>
        <path class="cls-3" d="m457.01,423.33c-1.72,28.95-6.33,52.05-18.75,78.19l-29.16,7.99,12.77,28.23c-35.26,46.22-95.76,89.62-136.12,108.57-40.35-18.95-100.86-62.35-136.12-108.57l12.77-28.23-29.16-7.99c-12.43-26.14-17.04-49.24-18.75-78.19,147.73-80.27,194.8-80.27,342.53,0"/>
        <path class="cls-2" d="m312.56,617.91c35.11-21.87,71.48-52.48,95.39-81.87l-15.55-34.38,4.14,30.31-.02.03-.05.09-.09.15c-4.97,8.5-11.54,17.11-18.97,25.52-13.54,16.05-34.71,37.84-64.84,60.15m131.95-187.71c-6.31-3.4-12.43-6.63-18.37-9.71,11.45,32.89,3.55,70.95,3.55,70.95,8.98-20.35,13.01-39.31,14.82-61.24Z"/>
        <path class="cls-9" d="m197.02,424.01c8.79,17.66,37.8,54.87,88.73,54.87s79.94-37.22,88.73-54.87c-6.33,37.78-31.37,78.8-58.29,97.68l-25.14-19.67,6.74-13.57-42.48,33.24c-26.92-18.88-51.96-59.9-58.29-97.68"/>
        <path class="cls-10" d="m285.75,535.23c4.51,0,8.17,3.66,8.17,8.17s-3.66,8.17-8.17,8.17-8.17-3.66-8.17-8.17,3.66-8.17,8.17-8.17m0,47.2c3.69,0,6.67,2.99,6.67,6.67s-2.99,6.67-6.67,6.67-6.67-2.99-6.67-6.67,2.99-6.67,6.67-6.67Zm-43.4-26.64c8.74,15.71,18.36,30.92,28.84,45.5l14.56,20.26,14.56-20.26c10.48-14.58,20.1-29.8,28.84-45.5,10.49-18.85,19.71-38.41,27.61-58.42-12.11,15.13-24.92,25.87-41.28,35.94-7.25-6.85-17.23-13.73-29.73-13.73s-22.48,6.87-29.73,13.73c-16.36-10.07-29.18-20.81-41.28-35.94,7.9,20.01,17.12,39.57,27.61,58.42Z"/>
        <path class="cls-9" d="m285.75,535.23c4.51,0,8.17,3.66,8.17,8.17s-3.66,8.17-8.17,8.17-8.17-3.66-8.17-8.17,3.66-8.17,8.17-8.17m0,47.2c3.68,0,6.67,2.99,6.67,6.67s-2.99,6.67-6.67,6.67-6.67-2.99-6.67-6.67,2.99-6.67,6.67-6.67Zm-40.28-21.12c7.89,13.75,16.47,27.12,25.72,39.98l14.56,20.26,14.56-20.26c9.25-12.87,17.83-26.23,25.72-39.98-9.38-19.12-23.94-31.4-40.28-31.4s-30.9,12.28-40.28,31.4Z"/>
        <path class="cls-3" d="m285.75,456.78l-16.77.32c-7.55.14-16.52-3.17-21.99-8.71-16.66-16.87-26.67-28.54-38.15-40.09-2.82.29-5.78.23-8.94-.28-27.53-4.43-39.58-40.69-21.77-62.77,1.27,4.32,4.35,9.72,8.36,13.07-1.44-8.48-4.25-22.32-5.54-27.59-13.55-3.73-20.84-8.26-26.89-17.96-12.23-20.75-25.28-73.21,5.94-82.14-.53-4.82-.93-9.91-1.15-15.41-2.71-66.76,42.72-110.1,126.9-110.1s129.61,43.35,126.9,110.1c-.22,5.5-.62,10.58-1.15,15.41,31.23,8.93,18.18,61.39,5.95,82.14-6.05,9.7-13.34,14.23-26.89,17.96-1.29,5.27-4.11,19.11-5.54,27.59,4.01-3.35,7.09-8.75,8.36-13.07,17.81,22.08,5.76,58.34-21.77,62.77-3.16.51-6.12.57-8.94.28-11.48,11.55-21.49,23.22-38.15,40.09-5.47,5.54-14.44,8.85-21.99,8.71l-16.77-.32Z"/>
        <path class="cls-3" d="m285.75,10.08c-53.71-1.98-151.38,13.5-145.25,35.58,13.02,46.29,14.92,105.57,14.91,140.05-62.07,7.8-68.72,57.28,13.81,61.07,3.48.16,7.2-10.15,8.57-13.85,38.41,19.17,107.95,31.06,107.95,31.06,0,0,69.54-11.89,107.95-31.06,1.37,3.7,5.09,14.01,8.57,13.85,82.54-3.79,75.88-53.27,13.81-61.07,0-34.48,1.89-93.76,14.91-140.05,6.13-22.08-91.54-37.56-145.25-35.58"/>
        <path class="cls-2" d="m398.87,188.22v-2.5c0-42.84,2.51-91.39,12.75-133.92,2.02-8.38-9.18-9.61-14.83-11.15,9.36,4.12,17.89,11.89-11.79,17.23,0,0-11.65,71.77-8.91,139.96,15.02-4.03,21.29-8.45,22.77-9.62"/>
        <path class="cls-4" d="m208.13,66.33c3.81,39.01,3.53,119.37,2.96,135.11-31.06-5.08-40.16-13.52-40.16-13.52.95-39.79.01-93.89-11.07-137.64-.59-2.82,1.45-5.45,4.71-7.04,0,0-12.9,9.18,22.67,14.64l20.48,2.42.41,6.03Z"/>
        <path class="cls-11" d="m233.27,60.73c1.21,17.49,5.05,79.95,2.92,143.29-3.82-.14-7.33-.4-10.44-.7,2.11-63.25-1.82-125.85-2.97-142.3,3.4-.05,6.91-.14,10.49-.29"/>
        <path class="cls-4" d="m285.75,367.58c13.72,0,26.26-7.54,32.07-12.71,16.82,3.16,29.16,11.32,41.83,14.89,10.63,3,24.28,3.23,32.61-7.88,2.7,15.6-5.89,32.94-21.99,35.37-18.29,2.76-30.97-14.15-49.35-16.77-9.6-1.37-17.66,1.47-35.17,1.47s-25.57-2.83-35.17-1.47c-18.38,2.62-31.05,19.52-49.35,16.77-16.1-2.43-24.69-19.76-21.99-35.37,8.32,11.11,21.97,10.88,32.6,7.88,12.67-3.57,25.01-11.73,41.83-14.89,5.8,5.17,18.35,12.71,32.07,12.71"/>
        <path class="cls-5" d="m179.25,361.89c8.32,11.11,21.97,10.88,32.6,7.88,12.67-3.57,25.01-11.73,41.83-14.89,0,0,4.32,8.66,8.53,13.16-21.6-2.18-39.39,15.66-57.96,15.4-11.34-.16-22.14-7.1-25.01-21.55"/>
        <path class="cls-6" d="m285.75,440.03c-9.47,4.91-24.1,8.56-32.22-.9l-20.42-23.78c6.15-3.74,23.43-3.8,33.15.32-1.88,1.49-4.27,4.5-5.02,6.42,14.51-5.63,34.51-5.63,49.02,0-.75-1.92-3.14-4.93-5.02-6.42,9.72-4.13,27.01-4.07,33.15-.32l-20.42,23.78c-8.12,9.45-22.75,5.81-32.22.9"/>
        <path class="cls-4" d="m285.75,248.62c72.83,0,105.36-34.65,155.92-26.49-45.76-16.19-80.28,16.07-155.92,16.07s-110.16-32.27-155.92-16.07c50.56-8.16,83.09,26.49,155.92,26.49"/>
        <path class="cls-2" d="m285.75,248.62c72.83,0,105.36-34.65,155.92-26.49-25.96-9.19-48.3-2.78-76.58,4.48-36.97,16.06-81.83,22.29-111.49,19.66,9.84,1.46,20.48,2.35,32.15,2.35"/>
        <path class="cls-6" d="m285.75,358.16c-9.08,0-17.04-6.84-17.23-15.45,0,0-2.71,4.49-3,9.36,0,0-7.96-2.81-10.77-10.11,1.08-3,4.59-7.86,8.8-10.86-29.45,10.74-24.17,25.75-58.54,30.24-2.75-7.77-6.2-17.16-9.49-23.04,4.49,1.31,8.13,3.96,12.83,8.52-4.96-18.14-17.71-25.03-20.92-38.97-.1-9.59.67-17.99,2.42-25.95,4.76-3.46,9.2-4.21,13.65-5,3.95,11.97,12.13,16.04,19.21,18.2,12.24,3.74,25.97.42,32.09-1.68-2.01,5.76-6.97,11.99-11.79,15.97,25.75-6.48,27.95-28.13,42.73-28.13s16.97,21.66,42.73,28.13c-4.82-3.98-9.78-10.21-11.79-15.97,6.11,2.1,19.84,5.42,32.08,1.68,7.09-2.17,15.26-6.23,19.21-18.2,4.45.79,8.89,1.54,13.65,5,1.75,7.96,2.52,16.36,2.42,25.95-3.2,13.94-15.95,20.83-20.91,38.97,4.7-4.56,8.33-7.21,12.83-8.52-3.29,5.88-6.74,15.27-9.49,23.04-34.37-4.49-29.09-19.5-58.54-30.24,4.21,3,7.72,7.86,8.8,10.86-2.81,7.3-10.77,10.11-10.77,10.11-.28-4.87-3-9.36-3-9.36-.19,8.61-8.14,15.45-17.23,15.45"/>
        <path class="cls-2" d="m375.97,338.3c-3.29,5.88-6.74,15.27-9.49,23.04-1.31-.17-2.55-.36-3.75-.56,4.36-12.98,13.24-22.49,13.24-22.49m-6.04-61.05c3.8.72,7.64,1.69,11.71,4.65,1.75,7.96,2.52,16.36,2.42,25.95-3.2,13.94-15.95,20.83-20.91,38.97-.21-28.54,23.33-33.88,6.79-69.57Z"/>
        <path class="cls-8" d="m321.29,294.78c7.04,1.8,17.73,3.3,27.49.32,7.09-2.17,15.26-6.23,19.21-18.2,0,0-2.62,14.38-12.35,19.53,0,0,6.46.47,13.58-2.43,6.57,29.7-32,32.75-47.92.79"/>
        <path class="cls-8" d="m304.05,331.81c5.21,2.04,13,9.42,4.26,13.53,0,0-1.68-7.72-4.26-13.53m-46.72,5.6c1.63-2.25,3.82-4.59,6.24-6.31-11.51-.39-26.04,6.59-39.29,6.66-12.04.06-22.94-6.18-31.09-17.66-2.54-3.75-4.67-7.62-5.74-12.26-.1-9.59.67-17.99,2.42-25.95,4.76-3.45,9.2-4.21,13.65-5,3.95,11.97,12.13,16.04,19.21,18.2,12.24,3.74,25.97.42,32.09-1.68-2.01,5.76-6.97,11.99-11.79,15.97,16.47-4.14,23.31-14.49,29.96-21.42,3.75-3.9,12.77-5.21,12.77,1.48v51.27c0,3.84-4.42,6.18-9.47,4.68-5.06-1.5-7.3-8.43-7.3-8.43,0,0-3.65,4.31-8.05,4.4-4.38.09-3.61-3.93-3.6-3.97Z"/>
        <path class="cls-4" d="m307.85,274.79l9.61-15.48-.25,5.37c12.9-7.34,30.87-15.25,44.03-18.55,6.83,3.27,15.04,9.25,21.44,18.57-18.48-6.83-57.47,1.83-74.83,10.09m-44.19,0l-9.61-15.48.25,5.37c-12.9-7.34-30.87-15.25-44.03-18.55-6.83,3.27-15.04,9.25-21.44,18.57,18.48-6.83,57.47,1.83,74.83,10.09Z"/>
        <path class="cls-2" d="m361.24,246.12s6.71,7.55,10.52,16.36c4.09.35,7.8,1.06,10.92,2.21-6.4-9.32-14.61-15.31-21.44-18.57"/>
        <path class="cls-6" d="m249.58,393.19c6.62,10.89,19.65,11.65,36.17,11.65s29.55-.75,36.17-11.65c-5.91-2.79-66.44-2.79-72.35,0"/>
        <path class="cls-8" d="m310.62,391.72c-13.67-.83-36.07-.82-49.74,0-.19.38-.29.77-.29,1.17,0,4.21,11.27,7.63,25.16,7.63s25.16-3.42,25.16-7.63c0-.4-.1-.79-.29-1.17"/>
        <path class="cls-6" d="m151.3,262.8c.15,15.9,6.23,34.56,13.4,44.41,7.05,9.69,14.12,10.45,14.12,10.45l-3.04-13.83c-4.9-.14-8.45-3.31-10.82-7.42-5.54-9.6-13.78-31.85-8.8-47.19-2.88,1.99-4.92,6.22-4.86,13.58"/>
        <path class="cls-2" d="m420.2,262.8c-.15,15.9-6.23,34.56-13.4,44.41-7.05,9.69-14.12,10.45-14.12,10.45l3.04-13.83c4.9-.14,8.45-3.31,10.82-7.42,5.54-9.6,13.78-31.85,8.8-47.19,2.88,1.99,4.92,6.22,4.85,13.58"/>
        <path class="cls-9" d="m217.01,283.2c5.7,19.46,29.48,18.02,36.71,5.38-9.4-10.24-25.89-10.45-36.71-5.38"/>
        <path class="cls-3" d="m234.8,278.5c-5.03,0-9.11,4.08-9.11,9.11s4.08,9.11,9.11,9.11,9.11-4.08,9.11-9.11-4.08-9.11-9.11-9.11"/>
        <path class="cls-9" d="m239.12,280.7c-2.7,0-4.89,2.19-4.89,4.89s2.19,4.89,4.89,4.89,4.89-2.19,4.89-4.89-2.19-4.89-4.89-4.89"/>
        <path class="cls-9" d="m354.49,283.2c-5.7,19.46-29.48,18.02-36.71,5.38,9.4-10.24,25.89-10.45,36.71-5.38"/>
        <path class="cls-3" d="m336.7,278.5c5.03,0,9.11,4.08,9.11,9.11s-4.08,9.11-9.11,9.11-9.11-4.08-9.11-9.11,4.08-9.11,9.11-9.11"/>
        <path class="cls-9" d="m340.53,279.97c2.7,0,4.89,2.19,4.89,4.89s-2.19,4.89-4.89,4.89-4.89-2.19-4.89-4.89,2.19-4.89,4.89-4.89"/>
        <path class="cls-5" d="m392.25,361.89c-8.32,11.11-21.97,10.88-32.61,7.88-11.34-3.2-22.42-10.07-36.68-13.75,3.99,16.32,29.43,27.62,44.27,27.41,11.34-.16,22.15-7.1,25.01-21.55"/>
        <path class="cls-8" d="m285.75,424.01s-18.18-.14-27.78,5.24c.73,12.7,18.82,9.65,27.78,6.83,8.96,2.82,27.05,5.86,27.78-6.83-9.6-5.38-27.78-5.24-27.78-5.24"/>
        <path class="cls-2" d="m388.49,365.89c1.34-1.13,2.6-2.46,3.76-4,2.7,15.6-5.89,32.94-21.99,35.37-4.62.7-8.89.14-12.98-1.13,12.98,1.13,32.1-8.84,31.2-30.23Z"/>
      </g>
      <g>
        <g>
          <path class="cls-13" d="m0,616.71l19.25-6.15c16.53-5.28,33.42-10.21,50.2-14.65l.1-.03c2.25-.58,4.54-.88,6.83-.88,4.56,0,9.1,1.2,13.12,3.47,6.38,3.59,10.86,9.44,12.62,16.46l5.95,23.7c1.74,6.94.64,14.13-3.11,20.23-3.61,5.88-9.27,10.08-15.94,11.83-4.95,1.31-9.92,2.66-14.88,4.06l4.67,15.19-19.22,5.92c-4.64,1.43-6.9,2.14-11.54,3.65l-19.13,6.21L0,616.71Z"/>
          <path class="cls-13" d="m74.6,615.35c1.77-.46,3.45-.24,5.03.64,1.58.89,2.57,2.17,2.99,3.84,1.98,7.9,3.96,15.8,5.95,23.7.43,1.71.18,3.32-.74,4.81-.92,1.5-2.22,2.46-3.92,2.9-11.73,3.1-23.38,6.4-34.99,9.91,1.9,6.19,2.86,9.28,4.76,15.47-4.74,1.46-7.11,2.21-11.84,3.74-5.49-16.89-10.98-33.78-16.46-50.67,16.3-5.21,32.68-9.99,49.22-14.36Zm-33.51,20.39c1.9,6.18,2.85,9.26,4.75,15.44,9.75-2.95,19.52-5.76,29.34-8.44-1.67-6.24-2.5-9.36-4.17-15.61-10.02,2.73-19.98,5.6-29.92,8.6Z"/>
          <path class="cls-13" d="m103.25,683.06c-4.81,0-9.57-1.36-13.76-3.92-6-3.67-10.22-9.45-11.89-16.28l-9.65-39.46c-1.72-7.03-.49-14.29,3.47-20.45,3.78-5.88,9.62-10,16.44-11.61l.09-.02c14.64-3.38,29.54-6.49,44.3-9.24l.09-.02c1.61-.29,3.25-.44,4.86-.44,5.26,0,10.39,1.57,14.83,4.53,6.07,4.06,10.1,10.22,11.33,17.34l6.94,40.03c1.2,6.9-.35,13.88-4.36,19.64-4.01,5.77-9.99,9.63-16.84,10.89-13.27,2.48-26.67,5.27-39.83,8.31-1.99.47-4.02.7-6.04.7Z"/>
          <path class="cls-13" d="m135.94,601.85c1.77-.32,3.41.02,4.92,1.02,1.5,1,2.4,2.36,2.69,4.05,2.31,13.34,4.63,26.69,6.94,40.03.3,1.72-.06,3.29-1.05,4.72-1,1.43-2.32,2.3-3.98,2.6-13.64,2.54-27.2,5.37-40.73,8.5-1.67.39-3.24.14-4.73-.78s-2.44-2.21-2.86-3.9c-3.22-13.15-6.43-26.31-9.65-39.46-.41-1.67-.13-3.27.85-4.79.98-1.52,2.36-2.5,4.14-2.92,14.43-3.33,28.9-6.35,43.46-9.07Zm-4.42,11.48c-10.16,1.98-20.27,4.09-30.37,6.34,2.4,10.5,4.79,21,7.19,31.5,9.71-2.16,19.43-4.19,29.2-6.09-2-10.58-4.01-21.16-6.01-31.74Z"/>
          <path class="cls-13" d="m124.28,583.33l19.84-3.32c5.28-.88,8.01-1.32,13.28-2.12l19.89-3.01.18,1.21,1.06-1.17,7.47-.88c6.55-.77,9.94-1.14,16.49-1.78l7.93-.78,6.47,4.99,17.41,13.61-15.15,16.08c-3.6,3.81-7.18,7.66-10.73,11.53,4.85,4.09,9.71,8.28,14.53,12.55l34.56,30.57-45.92,4.51c-5.51.54-8.2.83-13.71,1.47l-8.64,1.01-.16-.14-17.7,2.68c-4.76.72-7.08,1.09-11.85,1.89l-19.84,3.32-15.43-92.22Z"/>
          <path class="cls-13" d="m195.57,646.82c-7.59-6.4-15.26-12.68-23.03-18.86-2.58,3.07-3.86,4.62-6.4,7.71.9,5.91,1.34,8.87,2.24,14.78-4.87.74-7.3,1.12-12.16,1.94-2.93-17.51-5.86-35.03-8.79-52.54,5.18-.87,7.78-1.28,12.97-2.07,1.21,7.99,2.42,15.97,3.63,23.96,7.94-9.39,16.03-18.62,24.31-27.72,6.44-.76,9.66-1.1,16.11-1.74.03.02.05.04.08.06-8.55,9.05-16.92,18.23-25.13,27.59,10.3,8.18,20.37,16.65,30.22,25.37-5.63.55-8.44.85-14.06,1.51Z"/>
          <path class="cls-13" d="m187.66,573.62l20.03-1.85c5.26-.49,8-.72,13.33-1.13l20.06-1.54,7.15,93.23-20.05,1.54c-4.78.37-7.11.56-11.9,1l-20.03,1.85-8.58-93.11Z"/>
          <path class="cls-13" d="m214.43,644.85c-1.63-17.68-3.26-35.37-4.89-53.05,5.21-.48,7.81-.7,13.03-1.1,1.36,17.71,2.71,35.41,4.07,53.12-4.88.37-7.33.58-12.21,1.03Z"/>
          <path class="cls-13" d="m206.09,571.59l20.17-1.33c19.39-1.28,39.09-2,58.54-2.15l20.21-.15.27,93.49-20.01.17c-17.48.14-35.18.79-52.62,1.93l-19.96,1.3-6.59-93.26Z"/>
          <path class="cls-13" d="m272.43,620.22c-10.02.23-20.02.6-30.03,1.1.24,4.37.36,6.55.6,10.91,14.02-.71,28.02-1.11,42.06-1.22.01,4.19.02,6.29.03,10.48-17.96.15-35.84.81-53.77,1.97-1.25-17.71-2.5-35.43-3.76-53.14,19.12-1.26,38.21-1.96,57.37-2.11.01,4.19.02,6.29.03,10.48-14.6.11-29.16.53-43.75,1.27.24,4.35.36,6.53.6,10.88,10.14-.51,20.26-.88,30.41-1.12.08,4.19.11,6.29.19,10.48Z"/>
          <path class="cls-13" d="m354.73,664.45c-.72,0-1.46-.03-2.19-.09-15.41-1.23-31.06-2.07-46.51-2.52l-20.01-.58,2.27-93.47,20.2.58c16.08.46,32.38,1.31,48.43,2.53h.09c6.97.57,13.36,3.78,17.98,9.04,4.81,5.48,7.11,12.46,6.47,19.64l-.87,9.86c1.73,4,2.45,8.38,2.04,12.83l-1.67,18.14c-.64,6.97-3.95,13.3-9.31,17.81-4.84,4.08-10.69,6.23-16.92,6.23Z"/>
          <path class="cls-13" d="m360.92,638.56c-.16,1.73-.91,3.16-2.24,4.28-1.33,1.12-2.83,1.61-4.51,1.47-15.84-1.26-31.67-2.12-47.55-2.58.43-17.75.86-35.51,1.29-53.26,15.86.46,31.67,1.28,47.49,2.49,1.79.14,3.28.9,4.47,2.25,1.19,1.36,1.7,2.89,1.55,4.6-.41,4.68-.62,7.03-1.03,11.71-.18,2.05-1.39,3.39-3.62,4.03,1.74.15,3.19.9,4.34,2.26,1.15,1.36,1.64,2.89,1.48,4.6-.67,7.26-1,10.88-1.67,18.14Zm-12.77-37.64c-9.18-.67-18.37-1.19-27.57-1.55-.17,4.35-.26,6.53-.43,10.89,9.08.36,18.15.87,27.21,1.53.32-4.35.47-6.52.79-10.87Zm1.58,21.56c-10-.72-19.99-1.3-30-1.75-.17,4.37-.26,6.55-.43,10.92,9.88.44,19.74,1.01,29.6,1.72.33-4.36.5-6.54.84-10.9Z"/>
          <path class="cls-13" d="m413.36,671.59c-1.37,0-2.75-.11-4.11-.32-13.3-2.05-26.83-3.85-40.21-5.33-6.95-.75-13.21-4.17-17.63-9.63-4.41-5.45-6.46-12.29-5.78-19.25l3.97-40.43c.7-7.18,4.26-13.61,10-18.11,4.77-3.73,10.46-5.7,16.46-5.7.96,0,1.94.05,2.91.16h.09c14.88,1.66,29.92,3.66,44.72,5.94l.1.02c6.9,1.1,13.02,4.79,17.22,10.39,4.38,5.84,6.14,12.97,4.95,20.1l-6.71,40.07c-1.16,6.91-4.93,12.98-10.62,17.09-4.54,3.28-9.86,5.02-15.37,5.02Z"/>
          <path class="cls-13" d="m420.73,598.78c1.78.28,3.21,1.15,4.3,2.59,1.08,1.44,1.48,3.02,1.2,4.71-2.23,13.36-4.47,26.71-6.7,40.07-.29,1.72-1.14,3.08-2.55,4.1-1.41,1.02-2.95,1.4-4.61,1.13-13.68-2.11-27.36-3.93-41.12-5.45-1.7-.18-3.09-.94-4.18-2.3-1.1-1.35-1.56-2.9-1.39-4.63,1.32-13.48,2.65-26.95,3.97-40.43.17-1.71.96-3.12,2.38-4.24,1.42-1.11,3.04-1.57,4.85-1.38,14.67,1.63,29.28,3.57,43.87,5.82Zm-7.97,9.37c-10.21-1.49-20.42-2.85-30.66-4.07-1.22,10.7-2.44,21.4-3.66,32.1,9.85,1.17,19.66,2.47,29.48,3.91,1.61-10.65,3.23-21.3,4.84-31.94Z"/>
          <path class="cls-13" d="m471.46,683.07c-2.01,0-4.03-.23-6.01-.7-15.14-3.5-30.57-6.66-45.85-9.38l-19.7-3.52,8.66-49.97,2.78-16.02c1.24-7.12,5.26-13.28,11.33-17.34,4.43-2.96,9.56-4.53,14.84-4.53,1.62,0,3.27.15,4.89.44l.09.02c15.89,2.96,31.92,6.34,47.66,10.05l19.67,4.63-8.27,34.41c1.14,4.23,1.2,8.68.14,13.03l-4.56,18.66c-1.67,6.82-5.89,12.6-11.89,16.28-4.2,2.57-8.95,3.92-13.75,3.92Z"/>
          <path class="cls-13" d="m438.79,601.86c15.66,2.92,31.22,6.2,46.72,9.85-.98,4.08-1.47,6.12-2.45,10.19-13.23-3.12-26.5-5.97-39.85-8.56-.81,4.28-1.22,6.42-2.03,10.71,12.1,2.35,24.14,4.91,36.15,7.69,1.71.4,3.05,1.37,3.99,2.9.94,1.52,1.21,3.12.8,4.79-1.52,6.22-3.04,12.44-4.56,18.66-.41,1.69-1.37,2.99-2.86,3.9-1.49.91-3.05,1.17-4.7.78-15.56-3.6-31.16-6.79-46.87-9.59.72-4.13,1.07-6.2,1.79-10.33,13.88,2.48,27.68,5.25,41.45,8.32.97-4.26,1.46-6.39,2.43-10.66-11.86-2.64-23.75-5.08-35.7-7.31-1.73-.31-3.1-1.19-4.13-2.62-1.03-1.44-1.4-3.01-1.1-4.73,1.09-6.31,2.19-12.62,3.28-18.93.29-1.69,1.19-3.05,2.69-4.05s3.16-1.34,4.95-1.02Z"/>
          <path class="cls-13" d="m528.79,698.89c-2.66,0-5.31-.41-7.88-1.22-14.91-4.64-30.13-8.95-45.23-12.81l-19.39-4.96,16.3-64.95c1.76-7.02,6.24-12.87,12.62-16.46,4.03-2.27,8.57-3.47,13.13-3.47,2.28,0,4.58.3,6.82.88l.09.02c15.7,4.15,31.51,8.73,46.99,13.61l19.27,6.08-10.8,33.68c.83,4.31.57,8.76-.82,13.03l-5.94,18.27c-2.18,6.7-6.84,12.16-13.13,15.37-3.8,1.94-7.85,2.93-12.03,2.93Z"/>
          <path class="cls-13" d="m500.1,615.35c15.48,4.09,30.81,8.53,46.08,13.35-1.28,3.99-1.92,5.99-3.2,9.98-13.03-4.11-26.11-7.96-39.29-11.55-1.13,4.21-1.69,6.32-2.82,10.53,11.95,3.26,23.81,6.72,35.64,10.4,1.69.53,2.95,1.6,3.79,3.19.84,1.59.98,3.21.45,4.84-1.98,6.09-3.96,12.18-5.94,18.27-.54,1.66-1.59,2.88-3.15,3.68s-3.15.94-4.77.43c-15.32-4.76-30.7-9.12-46.24-13.1,1.02-4.07,1.53-6.1,2.55-10.17,13.72,3.51,27.34,7.31,40.9,11.41,1.29-4.18,1.93-6.27,3.21-10.45-11.69-3.53-23.41-6.86-35.21-9.98-1.71-.44-3.02-1.42-3.94-2.93-.92-1.51-1.18-3.11-.76-4.8,1.56-6.21,3.12-12.42,4.67-18.64.42-1.67,1.41-2.95,2.99-3.84,1.58-.89,3.26-1.1,5.03-.64Z"/>
        </g>
        <g>
          <path class="cls-12" d="m74.6,615.35c1.77-.46,3.45-.24,5.03.64,1.58.89,2.57,2.17,2.99,3.84,1.98,7.9,3.96,15.8,5.95,23.7.43,1.71.18,3.32-.74,4.81-.92,1.5-2.22,2.46-3.92,2.9-11.73,3.1-23.38,6.4-34.99,9.91,1.9,6.19,2.86,9.28,4.76,15.47-4.74,1.46-7.11,2.21-11.84,3.74-5.49-16.89-10.98-33.78-16.46-50.67,16.3-5.21,32.68-9.99,49.22-14.36Zm-33.51,20.39c1.9,6.18,2.85,9.26,4.75,15.44,9.75-2.95,19.52-5.76,29.34-8.44-1.67-6.24-2.5-9.36-4.17-15.61-10.02,2.73-19.98,5.6-29.92,8.6Z"/>
          <path class="cls-12" d="m135.94,601.85c1.77-.32,3.41.02,4.92,1.02,1.5,1,2.4,2.36,2.69,4.05,2.31,13.34,4.63,26.69,6.94,40.03.3,1.72-.06,3.29-1.05,4.72-1,1.43-2.32,2.3-3.98,2.6-13.64,2.54-27.2,5.37-40.73,8.5-1.67.39-3.24.14-4.73-.78s-2.44-2.21-2.86-3.9c-3.22-13.15-6.43-26.31-9.65-39.46-.41-1.67-.13-3.27.85-4.79.98-1.52,2.36-2.5,4.14-2.92,14.43-3.33,28.9-6.35,43.46-9.07Zm-4.42,11.48c-10.16,1.98-20.27,4.09-30.37,6.34,2.4,10.5,4.79,21,7.19,31.5,9.71-2.16,19.43-4.19,29.2-6.09-2-10.58-4.01-21.16-6.01-31.74Z"/>
          <path class="cls-12" d="m195.57,646.82c-7.59-6.4-15.26-12.68-23.03-18.86-2.58,3.07-3.86,4.62-6.4,7.71.9,5.91,1.34,8.87,2.24,14.78-4.87.74-7.3,1.12-12.16,1.94-2.93-17.51-5.86-35.03-8.79-52.54,5.18-.87,7.78-1.28,12.97-2.07,1.21,7.99,2.42,15.97,3.63,23.96,7.94-9.39,16.03-18.62,24.31-27.72,6.44-.76,9.66-1.1,16.11-1.74.03.02.05.04.08.06-8.55,9.05-16.92,18.23-25.13,27.59,10.3,8.18,20.37,16.65,30.22,25.37-5.63.55-8.44.85-14.06,1.51Z"/>
          <path class="cls-12" d="m214.43,644.85c-1.63-17.68-3.26-35.37-4.89-53.05,5.21-.48,7.81-.7,13.03-1.1,1.36,17.71,2.71,35.41,4.07,53.12-4.88.37-7.33.58-12.21,1.03Z"/>
          <path class="cls-12" d="m272.43,620.22c-10.02.23-20.02.6-30.03,1.1.24,4.37.36,6.55.6,10.91,14.02-.71,28.02-1.11,42.06-1.22.01,4.19.02,6.29.03,10.48-17.96.15-35.84.81-53.77,1.97-1.25-17.71-2.5-35.43-3.76-53.14,19.12-1.26,38.21-1.96,57.37-2.11.01,4.19.02,6.29.03,10.48-14.6.11-29.16.53-43.75,1.27.24,4.35.36,6.53.6,10.88,10.14-.51,20.26-.88,30.41-1.12.08,4.19.11,6.29.19,10.48Z"/>
          <path class="cls-12" d="m360.92,638.56c-.16,1.73-.91,3.16-2.24,4.28-1.33,1.12-2.83,1.61-4.51,1.47-15.84-1.26-31.67-2.12-47.55-2.58.43-17.75.86-35.51,1.29-53.26,15.86.46,31.67,1.28,47.49,2.49,1.79.14,3.28.9,4.47,2.25,1.19,1.36,1.7,2.89,1.55,4.6-.41,4.68-.62,7.03-1.03,11.71-.18,2.05-1.39,3.39-3.62,4.03,1.74.15,3.19.9,4.34,2.26,1.15,1.36,1.64,2.89,1.48,4.6-.67,7.26-1,10.88-1.67,18.14Zm-12.77-37.64c-9.18-.67-18.37-1.19-27.57-1.55-.17,4.35-.26,6.53-.43,10.89,9.08.36,18.15.87,27.21,1.53.32-4.35.47-6.52.79-10.87Zm1.58,21.56c-10-.72-19.99-1.3-30-1.75-.17,4.37-.26,6.55-.43,10.92,9.88.44,19.74,1.01,29.6,1.72.33-4.36.5-6.54.84-10.9Z"/>
          <path class="cls-12" d="m420.73,598.78c1.78.28,3.21,1.15,4.3,2.59,1.08,1.44,1.48,3.02,1.2,4.71-2.23,13.36-4.47,26.71-6.7,40.07-.29,1.72-1.14,3.08-2.55,4.1-1.41,1.02-2.95,1.4-4.61,1.13-13.68-2.11-27.36-3.93-41.12-5.45-1.7-.18-3.09-.94-4.18-2.3-1.1-1.35-1.56-2.9-1.39-4.63,1.32-13.48,2.65-26.95,3.97-40.43.17-1.71.96-3.12,2.38-4.24,1.42-1.11,3.04-1.57,4.85-1.38,14.67,1.63,29.28,3.57,43.87,5.82Zm-7.97,9.37c-10.21-1.49-20.42-2.85-30.66-4.07-1.22,10.7-2.44,21.4-3.66,32.1,9.85,1.17,19.66,2.47,29.48,3.91,1.61-10.65,3.23-21.3,4.84-31.94Z"/>
          <path class="cls-12" d="m438.79,601.86c15.66,2.92,31.22,6.2,46.72,9.85-.98,4.08-1.47,6.12-2.45,10.19-13.23-3.12-26.5-5.97-39.85-8.56-.81,4.28-1.22,6.42-2.03,10.71,12.1,2.35,24.14,4.91,36.15,7.69,1.71.4,3.05,1.37,3.99,2.9.94,1.52,1.21,3.12.8,4.79-1.52,6.22-3.04,12.44-4.56,18.66-.41,1.69-1.37,2.99-2.86,3.9-1.49.91-3.05,1.17-4.7.78-15.56-3.6-31.16-6.79-46.87-9.59.72-4.13,1.07-6.2,1.79-10.33,13.88,2.48,27.68,5.25,41.45,8.32.97-4.26,1.46-6.39,2.43-10.66-11.86-2.64-23.75-5.08-35.7-7.31-1.73-.31-3.1-1.19-4.13-2.62-1.03-1.44-1.4-3.01-1.1-4.73,1.09-6.31,2.19-12.62,3.28-18.93.29-1.69,1.19-3.05,2.69-4.05s3.16-1.34,4.95-1.02Z"/>
          <path class="cls-12" d="m500.1,615.35c15.48,4.09,30.81,8.53,46.08,13.35-1.28,3.99-1.92,5.99-3.2,9.98-13.03-4.11-26.11-7.96-39.29-11.55-1.13,4.21-1.69,6.32-2.82,10.53,11.95,3.26,23.81,6.72,35.64,10.4,1.69.53,2.95,1.6,3.79,3.19.84,1.59.98,3.21.45,4.84-1.98,6.09-3.96,12.18-5.94,18.27-.54,1.66-1.59,2.88-3.15,3.68s-3.15.94-4.77.43c-15.32-4.76-30.7-9.12-46.24-13.1,1.02-4.07,1.53-6.1,2.55-10.17,13.72,3.51,27.34,7.31,40.9,11.41,1.29-4.18,1.93-6.27,3.21-10.45-11.69-3.53-23.41-6.86-35.21-9.98-1.71-.44-3.02-1.42-3.94-2.93-.92-1.51-1.18-3.11-.76-4.8,1.56-6.21,3.12-12.42,4.67-18.64.42-1.67,1.41-2.95,2.99-3.84,1.58-.89,3.26-1.1,5.03-.64Z"/>
        </g>
      </g>
    </g>
  </g>
</svg>